Coordinates
version=1
nRows=11
nColumns=40
inDegrees=yes

Units are S.I. units (second, meters, Newtons, ...)
Angles are in degrees.

endheader
time	pelvis_tilt	pelvis_list	pelvis_rotation	pelvis_tx	pelvis_ty	pelvis_tz	hip_flexion_r	hip_adduction_r	hip_rotation_r	knee_angle_r	knee_angle_r_beta	ankle_angle_r	subtalar_angle_r	mtp_angle_r	hip_flexion_l	hip_adduction_l	hip_rotation_l	knee_angle_l	knee_angle_l_beta	ankle_angle_l	subtalar_angle_l	mtp_angle_l	lumbar_extension	lumbar_bending	lumbar_rotation	arm_flex_r	arm_add_r	arm_rot_r	elbow_flex_r	pro_sup_r	wrist_flex_r	wrist_dev_r	arm_flex_l	arm_add_l	arm_rot_l	elbow_flex_l	pro_sup_l	wrist_flex_l	wrist_dev_l
     36.30250000	     -4.14372028	     -4.70961620	      3.75287975	      1.11389770	      0.93060830	      0.47478065	     10.18116031	      1.86393947	    -13.72958653	     15.38305330	     15.38305330	     10.67762157	     -2.19017479	     -4.78082713	     31.56614602	    -11.52435997	      0.92419958	     45.96107615	     45.96107615	     11.93502901	    -18.83089818	     14.51014312	    -10.61338828	      5.41015392	      1.24337898	     22.94716022	    -18.41642559	     -1.23788373	     67.38344136	     44.88597619	      0.00000000	      0.00000000	      4.49851073	     -8.63487960	     -8.80115639	     29.57733278	     46.77823665	      0.00000000	      0.00000000
     36.31500000	     -4.31091217	     -4.57402035	      4.25172926	      1.11261250	      0.93058594	      0.47429845	      9.96190565	      1.71724072	    -13.93445043	     15.18672859	     15.18672859	     10.84240927	     -2.48435835	     -4.76217638	     31.91491172	    -10.94878144	      0.85414822	     42.58415407	     42.58415407	     11.98529350	    -18.69055436	     14.57784945	    -10.68826825	      5.17171890	      0.57539316	     24.42797205	    -17.93411007	     -1.31383722	     70.09842131	     44.80953993	      0.00000000	      0.00000000	      3.70742946	     -8.68325278	     -8.78084501	     28.35216024	     46.75916423	      0.00000000	      0.00000000
     36.32750000	     -4.51138179	     -4.42120672	      4.72497501	      1.11130119	      0.93039646	      0.47365107	      9.79777052	      1.53406988	    -14.14598015	     15.04017568	     15.04017568	     11.05145587	     -2.77666367	     -4.77712180	     32.22072061	    -10.27051132	      0.92163355	     39.20467526	     39.20467526	     11.93238493	    -18.41319539	     14.34726125	    -10.72363967	      4.88666627	      0.16235219	     25.62870852	    -17.68920019	     -1.36658625	     73.21865174	     44.72032953	      0.00000000	      0.00000000	      3.12524683	     -8.64887860	     -8.77034851	     27.13421469	     46.74593282	      0.00000000	      0.00000000
     36.34000000	     -4.86322274	     -4.49740122	      5.20779347	      1.10981237	      0.92983200	      0.47287370	      9.86643373	      1.55265418	    -14.42952183	     14.95695488	     14.95695488	     11.17061604	     -3.02270879	     -4.80361929	     32.81006243	     -9.77154002	      1.16367236	     36.13277625	     36.13277625	     12.08422298	    -17.65743077	     14.44567646	    -10.50461961	      4.86402463	      0.22904232	     27.06248750	    -17.95863934	     -1.60518549	     74.64177739	     44.69007108	      0.00000000	      0.00000000	      2.65788051	     -8.41156490	     -8.74509748	     26.67230375	     46.73317462	      0.00000000	      0.00000000
     36.35250000	     -4.99140547	     -4.24119224	      5.65851228	      1.10869353	      0.92964935	      0.47184372	      9.61603670	      1.23194325	    -14.59470933	     14.85018768	     14.85018768	     11.41866972	     -3.27606981	     -4.84404540	     32.71949691	     -8.91635945	      1.35934355	     32.63380975	     32.63380975	     10.66843111	    -17.36957964	     10.88817728	    -10.78529719	      4.55027183	      1.08455150	     26.16720887	    -18.42038906	     -3.31456685	     82.05218494	     44.57999742	      0.00000000	      0.00000000	      3.56394332	     -8.10387230	     -8.69369151	     23.69105966	     46.72592315	      0.00000000	      0.00000000
     36.36500000	     -5.22216323	     -4.07318694	      6.07703103	      1.10751401	      0.92932952	      0.47075466	      9.49863846	      0.99190527	    -14.74185325	     14.76209537	     14.76209537	     11.63586775	     -3.51925253	     -4.88192606	     32.93857894	     -8.16476456	      1.63211407	     29.84124418	     29.84124418	     10.83089138	    -16.21366292	     11.03865561	    -10.73960503	      4.23909270	      0.80883317	     27.52379944	    -18.11963997	     -3.33605808	     83.81351070	     44.53633968	      0.00000000	      0.00000000	      2.94745770	     -8.15571236	     -8.69896120	     23.31841711	     46.71407480	      0.00000000	      0.00000000
     36.37750000	     -5.40467830	     -4.00920487	      6.52098551	      1.10645920	      0.92893583	      0.46948715	      9.33213130	      0.84808092	    -15.00335743	     14.69271624	     14.69271624	     11.85837733	     -3.72676664	     -4.92111036	     33.18204150	     -7.52459479	      2.02195929	     27.49971627	     27.49971627	     10.97563292	    -14.92968027	     10.92593614	    -10.78350161	      4.08771406	      0.44551004	     28.72967845	    -17.73524616	     -3.31229098	     86.43818296	     44.46722161	      0.00000000	      0.00000000	      2.30874143	     -8.16452960	     -8.72363090	     23.03476830	     46.70365861	      0.00000000	      0.00000000
     36.39000000	     -5.60888252	     -4.00194468	      6.90933999	      1.10560862	      0.92846295	      0.46815580	      9.15221157	      0.76616603	    -15.24775130	     14.56418169	     14.56418169	     12.07837367	     -3.80381692	     -4.94206561	     33.46166330	     -7.01361996	      2.29213826	     25.56920026	     25.56920026	     10.97331771	    -13.60567627	     10.32868080	    -10.80710084	      3.99173358	      0.84513847	     29.13444680	    -18.06473435	     -3.66424267	     90.06517090	     44.40665006	      0.00000000	      0.00000000	      1.95136870	     -8.03831162	     -8.79284014	     23.22017344	     46.69478292	      0.00000000	      0.00000000
     36.40250000	     -5.76522126	     -3.95109381	      7.26277909	      1.10494325	      0.92810310	      0.46671538	      8.89233274	      0.64973783	    -15.43828863	     14.40870621	     14.40870621	     12.27563072	     -3.91531547	     -4.95005888	     33.65133648	     -6.49817091	      2.52775541	     24.03670731	     24.03670731	     11.15188737	    -12.42672515	     10.30594955	    -10.78359667	      3.83956047	      0.70174469	     30.25765462	    -17.61310887	     -3.77220166	     91.77346130	     44.37166317	      0.00000000	      0.00000000	      1.44280906	     -8.04129358	     -8.79035632	     23.00421243	     46.68170058	      0.00000000	      0.00000000
     36.41500000	     -5.90129478	     -3.97013437	      7.58716350	      1.10452847	      0.92770219	      0.46516391	      8.56101029	      0.61110246	    -15.67444736	     14.18204488	     14.18204488	     12.48830973	     -3.90894455	     -4.95100082	     33.83934839	     -6.10806753	      2.68719204	     22.96642181	     22.96642181	     11.31612815	    -11.42342663	     10.21087589	    -10.75938117	      3.77711918	      0.67203609	     31.17915674	    -17.28810094	     -3.81160009	     93.74761079	     44.32747739	      0.00000000	      0.00000000	      0.93609286	     -8.02061494	     -8.83022750	     23.04979245	     46.67351897	      0.00000000	      0.00000000
     36.42750000	     -6.02210657	     -4.05933963	      7.86068732	      1.10440540	      0.92720597	      0.46351338	      8.16942071	      0.65339126	    -15.94687715	     13.88648491	     13.88648491	     12.71354189	     -3.75049854	     -4.94606821	     34.00406102	     -5.84417569	      2.75165908	     22.30932036	     22.30932036	     11.41480214	    -10.71469775	     10.01666601	    -10.71675266	      3.80345547	      0.85293478	     31.82965054	    -17.17375176	     -3.87237872	     95.97861271	     44.28375998	      0.00000000	      0.00000000	      0.43051220	     -7.98285126	     -8.92476050	     23.44159095	     46.67006575	      0.00000000	      0.00000000
